<svg width="96" height="96" viewBox="0 0 96 96" fill="none" xmlns="http://www.w3.org/2000/svg">
<path d="M48 96C41.5221 96 35.2356 94.7303 29.3148 92.226C26.4695 91.0225 23.7257 89.5332 21.1596 87.7996C18.619 86.083 16.2298 84.1122 14.059 81.941C11.8882 79.7699 9.91696 77.3811 8.2004 74.8405C6.46681 72.2743 4.97754 69.5305 3.77406 66.6852C1.26974 60.7648 0 54.4783 0 48C0 41.5217 1.26974 35.2356 3.77406 29.3148C4.97754 26.4695 6.46681 23.7257 8.2004 21.1596C9.91696 18.619 11.8878 16.2298 14.059 14.059C16.2301 11.8878 18.619 9.91696 21.1596 8.2004C23.7257 6.46681 26.4695 4.97754 29.3148 3.77406C35.2352 1.26974 41.5217 0 48 0C54.4783 0 60.7644 1.26974 66.6852 3.77406C69.5305 4.97754 72.2743 6.46681 74.8405 8.2004C77.3811 9.91696 79.7702 11.8878 81.941 14.059C84.1118 16.2301 86.0831 18.619 87.7996 21.1596C89.5332 23.7257 91.0225 26.4695 92.2259 29.3148C94.7303 35.2352 96 41.5217 96 48C96 54.4783 94.7303 60.7644 92.2259 66.6852C91.0225 69.5305 89.5332 72.2743 87.7996 74.8405C86.0831 77.3811 84.1122 79.7702 81.941 81.941C79.7699 84.1118 77.3811 86.083 74.8405 87.7996C72.2743 89.5332 69.5305 91.0225 66.6852 92.226C60.7648 94.7303 54.4783 96 48 96ZM48 8.91449C42.7215 8.91449 37.6033 9.94731 32.7875 11.9841C28.1339 13.9524 23.9534 16.7713 20.3625 20.3622C16.7717 23.953 13.9527 28.1335 11.9845 32.7871C9.94768 37.6029 8.91486 42.7211 8.91486 47.9996C8.91486 53.2781 9.94768 58.3964 11.9845 63.2121C13.9527 67.8658 16.7717 72.0463 20.3625 75.6375C23.9534 79.2283 28.1339 82.0473 32.7875 84.0156C37.6033 86.0523 42.7215 87.0852 48 87.0852C53.2785 87.0852 58.3967 86.0523 63.2125 84.0156C67.8661 82.0473 72.0467 79.2283 75.6378 75.6375C79.2287 72.0467 82.0476 67.8661 84.0159 63.2121C86.0527 58.3964 87.0855 53.2781 87.0855 47.9996C87.0855 42.7211 86.0527 37.6029 84.0159 32.7871C82.0476 28.1335 79.2287 23.953 75.6378 20.3622C72.047 16.7713 67.8665 13.9524 63.2125 11.9841C58.3967 9.94731 53.2785 8.91449 48 8.91449Z" fill="#181C1F"/>
<path d="M47.6237 51.2981L47.6222 84.6871L17.54 27.4932L47.6237 51.2981Z" fill="#181C1F"/>
<path d="M48.3779 51.2981L48.3794 84.6871L78.4616 27.4932L48.3779 51.2981Z" fill="#181C1F"/>
</svg>
